<mxfile host="app.diagrams.net" agent="Mozilla/5.0 (Windows NT 10.0; Win64; x64) AppleWebKit/537.36 (KHTML, like Gecko) Chrome/131.0.0.0 Safari/537.36" version="24.9.1">
  <diagram id="C5RBs43oDa-KdzZeNtuy" name="Page-1">
    <mxGraphModel dx="3694" dy="2433" grid="1" gridSize="10" guides="1" tooltips="1" connect="1" arrows="1" fold="1" page="1" pageScale="1" pageWidth="827" pageHeight="1169" math="0" shadow="0">
      <root>
        <mxCell id="WIyWlLk6GJQsqaUBKTNV-0" />
        <mxCell id="WIyWlLk6GJQsqaUBKTNV-1" parent="WIyWlLk6GJQsqaUBKTNV-0" />
        <mxCell id="zkfFHV4jXpPFQw0GAbJ--0" value="Smart_Airport" style="swimlane;fontStyle=2;align=center;verticalAlign=top;childLayout=stackLayout;horizontal=1;startSize=26;horizontalStack=0;resizeParent=1;resizeLast=0;collapsible=1;marginBottom=0;rounded=0;shadow=0;strokeWidth=1;" parent="WIyWlLk6GJQsqaUBKTNV-1" vertex="1">
          <mxGeometry x="720" y="130" width="160" height="70" as="geometry">
            <mxRectangle x="230" y="140" width="160" height="26" as="alternateBounds" />
          </mxGeometry>
        </mxCell>
        <mxCell id="zkfFHV4jXpPFQw0GAbJ--4" value="" style="line;html=1;strokeWidth=1;align=left;verticalAlign=middle;spacingTop=-1;spacingLeft=3;spacingRight=3;rotatable=0;labelPosition=right;points=[];portConstraint=eastwest;" parent="zkfFHV4jXpPFQw0GAbJ--0" vertex="1">
          <mxGeometry y="26" width="160" height="8" as="geometry" />
        </mxCell>
        <mxCell id="zkfFHV4jXpPFQw0GAbJ--6" value="Actuator" style="swimlane;fontStyle=0;align=center;verticalAlign=top;childLayout=stackLayout;horizontal=1;startSize=26;horizontalStack=0;resizeParent=1;resizeLast=0;collapsible=1;marginBottom=0;rounded=0;shadow=0;strokeWidth=1;" parent="WIyWlLk6GJQsqaUBKTNV-1" vertex="1">
          <mxGeometry x="320" y="310" width="160" height="138" as="geometry">
            <mxRectangle x="130" y="380" width="160" height="26" as="alternateBounds" />
          </mxGeometry>
        </mxCell>
        <mxCell id="zkfFHV4jXpPFQw0GAbJ--7" value="- pin: byte" style="text;align=left;verticalAlign=top;spacingLeft=4;spacingRight=4;overflow=hidden;rotatable=0;points=[[0,0.5],[1,0.5]];portConstraint=eastwest;" parent="zkfFHV4jXpPFQw0GAbJ--6" vertex="1">
          <mxGeometry y="26" width="160" height="26" as="geometry" />
        </mxCell>
        <mxCell id="zkfFHV4jXpPFQw0GAbJ--9" value="" style="line;html=1;strokeWidth=1;align=left;verticalAlign=middle;spacingTop=-1;spacingLeft=3;spacingRight=3;rotatable=0;labelPosition=right;points=[];portConstraint=eastwest;" parent="zkfFHV4jXpPFQw0GAbJ--6" vertex="1">
          <mxGeometry y="52" width="160" height="8" as="geometry" />
        </mxCell>
        <mxCell id="zkfFHV4jXpPFQw0GAbJ--10" value="+ Actuator(pin: byte)" style="text;align=left;verticalAlign=top;spacingLeft=4;spacingRight=4;overflow=hidden;rotatable=0;points=[[0,0.5],[1,0.5]];portConstraint=eastwest;fontStyle=0" parent="zkfFHV4jXpPFQw0GAbJ--6" vertex="1">
          <mxGeometry y="60" width="160" height="26" as="geometry" />
        </mxCell>
        <mxCell id="zkfFHV4jXpPFQw0GAbJ--11" value="+ init(): void&#xa;" style="text;align=left;verticalAlign=top;spacingLeft=4;spacingRight=4;overflow=hidden;rotatable=0;points=[[0,0.5],[1,0.5]];portConstraint=eastwest;" parent="zkfFHV4jXpPFQw0GAbJ--6" vertex="1">
          <mxGeometry y="86" width="160" height="26" as="geometry" />
        </mxCell>
        <mxCell id="0S2fVbFoJRxDx6hrV0r0-1" value="+ getPin(): byte" style="text;align=left;verticalAlign=top;spacingLeft=4;spacingRight=4;overflow=hidden;rotatable=0;points=[[0,0.5],[1,0.5]];portConstraint=eastwest;" parent="zkfFHV4jXpPFQw0GAbJ--6" vertex="1">
          <mxGeometry y="112" width="160" height="26" as="geometry" />
        </mxCell>
        <mxCell id="zkfFHV4jXpPFQw0GAbJ--13" value="Led" style="swimlane;fontStyle=0;align=center;verticalAlign=top;childLayout=stackLayout;horizontal=1;startSize=26;horizontalStack=0;resizeParent=1;resizeLast=0;collapsible=1;marginBottom=0;rounded=0;shadow=0;strokeWidth=1;" parent="WIyWlLk6GJQsqaUBKTNV-1" vertex="1">
          <mxGeometry x="480" y="600" width="160" height="164" as="geometry">
            <mxRectangle x="340" y="380" width="170" height="26" as="alternateBounds" />
          </mxGeometry>
        </mxCell>
        <mxCell id="zkfFHV4jXpPFQw0GAbJ--14" value="(inherits from Actuator)" style="text;align=left;verticalAlign=top;spacingLeft=4;spacingRight=4;overflow=hidden;rotatable=0;points=[[0,0.5],[1,0.5]];portConstraint=eastwest;" parent="zkfFHV4jXpPFQw0GAbJ--13" vertex="1">
          <mxGeometry y="26" width="160" height="26" as="geometry" />
        </mxCell>
        <mxCell id="zkfFHV4jXpPFQw0GAbJ--15" value="" style="line;html=1;strokeWidth=1;align=left;verticalAlign=middle;spacingTop=-1;spacingLeft=3;spacingRight=3;rotatable=0;labelPosition=right;points=[];portConstraint=eastwest;" parent="zkfFHV4jXpPFQw0GAbJ--13" vertex="1">
          <mxGeometry y="52" width="160" height="8" as="geometry" />
        </mxCell>
        <mxCell id="0S2fVbFoJRxDx6hrV0r0-3" value="+ Led(pin: byte)" style="text;align=left;verticalAlign=top;spacingLeft=4;spacingRight=4;overflow=hidden;rotatable=0;points=[[0,0.5],[1,0.5]];portConstraint=eastwest;fontStyle=0" parent="zkfFHV4jXpPFQw0GAbJ--13" vertex="1">
          <mxGeometry y="60" width="160" height="26" as="geometry" />
        </mxCell>
        <mxCell id="0S2fVbFoJRxDx6hrV0r0-4" value="+ init(): void" style="text;align=left;verticalAlign=top;spacingLeft=4;spacingRight=4;overflow=hidden;rotatable=0;points=[[0,0.5],[1,0.5]];portConstraint=eastwest;fontStyle=0" parent="zkfFHV4jXpPFQw0GAbJ--13" vertex="1">
          <mxGeometry y="86" width="160" height="26" as="geometry" />
        </mxCell>
        <mxCell id="0S2fVbFoJRxDx6hrV0r0-5" value="+ on(): void" style="text;align=left;verticalAlign=top;spacingLeft=4;spacingRight=4;overflow=hidden;rotatable=0;points=[[0,0.5],[1,0.5]];portConstraint=eastwest;fontStyle=0" parent="zkfFHV4jXpPFQw0GAbJ--13" vertex="1">
          <mxGeometry y="112" width="160" height="26" as="geometry" />
        </mxCell>
        <mxCell id="0S2fVbFoJRxDx6hrV0r0-6" value="+ off(): void" style="text;align=left;verticalAlign=top;spacingLeft=4;spacingRight=4;overflow=hidden;rotatable=0;points=[[0,0.5],[1,0.5]];portConstraint=eastwest;fontStyle=0" parent="zkfFHV4jXpPFQw0GAbJ--13" vertex="1">
          <mxGeometry y="138" width="160" height="26" as="geometry" />
        </mxCell>
        <mxCell id="0S2fVbFoJRxDx6hrV0r0-0" value="&lt;div&gt;&lt;br&gt;&lt;/div&gt;&lt;div&gt;&lt;br&gt;&lt;/div&gt;" style="endArrow=open;html=1;endSize=12;startArrow=diamondThin;startSize=14;startFill=1;edgeStyle=orthogonalEdgeStyle;align=left;verticalAlign=bottom;rounded=0;" parent="WIyWlLk6GJQsqaUBKTNV-1" source="zkfFHV4jXpPFQw0GAbJ--0" target="zkfFHV4jXpPFQw0GAbJ--6" edge="1">
          <mxGeometry x="-1" y="3" relative="1" as="geometry">
            <mxPoint x="300" y="310" as="sourcePoint" />
            <mxPoint x="610" y="300" as="targetPoint" />
            <mxPoint as="offset" />
            <Array as="points">
              <mxPoint x="800" y="379" />
            </Array>
          </mxGeometry>
        </mxCell>
        <mxCell id="0S2fVbFoJRxDx6hrV0r0-9" value="" style="endArrow=none;html=1;edgeStyle=orthogonalEdgeStyle;rounded=0;" parent="WIyWlLk6GJQsqaUBKTNV-1" source="zkfFHV4jXpPFQw0GAbJ--6" target="zkfFHV4jXpPFQw0GAbJ--13" edge="1">
          <mxGeometry relative="1" as="geometry">
            <mxPoint x="720" y="540" as="sourcePoint" />
            <mxPoint x="880" y="540" as="targetPoint" />
            <Array as="points">
              <mxPoint x="400" y="520" />
              <mxPoint x="560" y="520" />
            </Array>
          </mxGeometry>
        </mxCell>
        <mxCell id="0S2fVbFoJRxDx6hrV0r0-10" value="parent" style="edgeLabel;resizable=0;html=1;align=left;verticalAlign=bottom;" parent="0S2fVbFoJRxDx6hrV0r0-9" connectable="0" vertex="1">
          <mxGeometry x="-1" relative="1" as="geometry">
            <mxPoint y="22" as="offset" />
          </mxGeometry>
        </mxCell>
        <mxCell id="0S2fVbFoJRxDx6hrV0r0-11" value="child" style="edgeLabel;resizable=0;html=1;align=right;verticalAlign=bottom;" parent="0S2fVbFoJRxDx6hrV0r0-9" connectable="0" vertex="1">
          <mxGeometry x="1" relative="1" as="geometry" />
        </mxCell>
        <mxCell id="0S2fVbFoJRxDx6hrV0r0-12" value="MoteurToit" style="swimlane;fontStyle=0;align=center;verticalAlign=top;childLayout=stackLayout;horizontal=1;startSize=26;horizontalStack=0;resizeParent=1;resizeLast=0;collapsible=1;marginBottom=0;rounded=0;shadow=0;strokeWidth=1;" parent="WIyWlLk6GJQsqaUBKTNV-1" vertex="1">
          <mxGeometry x="660" y="600" width="160" height="164" as="geometry">
            <mxRectangle x="340" y="380" width="170" height="26" as="alternateBounds" />
          </mxGeometry>
        </mxCell>
        <mxCell id="0S2fVbFoJRxDx6hrV0r0-13" value="- angle: int" style="text;align=left;verticalAlign=top;spacingLeft=4;spacingRight=4;overflow=hidden;rotatable=0;points=[[0,0.5],[1,0.5]];portConstraint=eastwest;" parent="0S2fVbFoJRxDx6hrV0r0-12" vertex="1">
          <mxGeometry y="26" width="160" height="26" as="geometry" />
        </mxCell>
        <mxCell id="0S2fVbFoJRxDx6hrV0r0-19" value="(inherits from Actuator)" style="text;align=left;verticalAlign=top;spacingLeft=4;spacingRight=4;overflow=hidden;rotatable=0;points=[[0,0.5],[1,0.5]];portConstraint=eastwest;" parent="0S2fVbFoJRxDx6hrV0r0-12" vertex="1">
          <mxGeometry y="52" width="160" height="26" as="geometry" />
        </mxCell>
        <mxCell id="0S2fVbFoJRxDx6hrV0r0-14" value="" style="line;html=1;strokeWidth=1;align=left;verticalAlign=middle;spacingTop=-1;spacingLeft=3;spacingRight=3;rotatable=0;labelPosition=right;points=[];portConstraint=eastwest;" parent="0S2fVbFoJRxDx6hrV0r0-12" vertex="1">
          <mxGeometry y="78" width="160" height="8" as="geometry" />
        </mxCell>
        <mxCell id="0S2fVbFoJRxDx6hrV0r0-15" value="+ MoteurToit(pin: byte)" style="text;align=left;verticalAlign=top;spacingLeft=4;spacingRight=4;overflow=hidden;rotatable=0;points=[[0,0.5],[1,0.5]];portConstraint=eastwest;fontStyle=0" parent="0S2fVbFoJRxDx6hrV0r0-12" vertex="1">
          <mxGeometry y="86" width="160" height="26" as="geometry" />
        </mxCell>
        <mxCell id="0S2fVbFoJRxDx6hrV0r0-16" value="+ init(): void" style="text;align=left;verticalAlign=top;spacingLeft=4;spacingRight=4;overflow=hidden;rotatable=0;points=[[0,0.5],[1,0.5]];portConstraint=eastwest;fontStyle=0" parent="0S2fVbFoJRxDx6hrV0r0-12" vertex="1">
          <mxGeometry y="112" width="160" height="26" as="geometry" />
        </mxCell>
        <mxCell id="0S2fVbFoJRxDx6hrV0r0-17" value="+ setAngle(angle: int): void" style="text;align=left;verticalAlign=top;spacingLeft=4;spacingRight=4;overflow=hidden;rotatable=0;points=[[0,0.5],[1,0.5]];portConstraint=eastwest;fontStyle=0" parent="0S2fVbFoJRxDx6hrV0r0-12" vertex="1">
          <mxGeometry y="138" width="160" height="26" as="geometry" />
        </mxCell>
        <mxCell id="0S2fVbFoJRxDx6hrV0r0-20" value="" style="endArrow=none;html=1;edgeStyle=orthogonalEdgeStyle;rounded=0;startArrow=open;startFill=0;" parent="WIyWlLk6GJQsqaUBKTNV-1" source="zkfFHV4jXpPFQw0GAbJ--6" target="0S2fVbFoJRxDx6hrV0r0-12" edge="1">
          <mxGeometry relative="1" as="geometry">
            <mxPoint x="660" y="560" as="sourcePoint" />
            <mxPoint x="570" y="610" as="targetPoint" />
            <Array as="points">
              <mxPoint x="400" y="520" />
              <mxPoint x="740" y="520" />
            </Array>
          </mxGeometry>
        </mxCell>
        <mxCell id="0S2fVbFoJRxDx6hrV0r0-21" value="parent" style="edgeLabel;resizable=0;html=1;align=left;verticalAlign=bottom;" parent="0S2fVbFoJRxDx6hrV0r0-20" connectable="0" vertex="1">
          <mxGeometry x="-1" relative="1" as="geometry">
            <mxPoint y="22" as="offset" />
          </mxGeometry>
        </mxCell>
        <mxCell id="0S2fVbFoJRxDx6hrV0r0-22" value="child" style="edgeLabel;resizable=0;html=1;align=right;verticalAlign=bottom;" parent="0S2fVbFoJRxDx6hrV0r0-20" connectable="0" vertex="1">
          <mxGeometry x="1" relative="1" as="geometry" />
        </mxCell>
        <mxCell id="0S2fVbFoJRxDx6hrV0r0-23" value="Capteur" style="swimlane;fontStyle=0;align=center;verticalAlign=top;childLayout=stackLayout;horizontal=1;startSize=26;horizontalStack=0;resizeParent=1;resizeLast=0;collapsible=1;marginBottom=0;rounded=0;shadow=0;strokeWidth=1;" parent="WIyWlLk6GJQsqaUBKTNV-1" vertex="1">
          <mxGeometry x="1130" y="310" width="220" height="216" as="geometry">
            <mxRectangle x="130" y="380" width="160" height="26" as="alternateBounds" />
          </mxGeometry>
        </mxCell>
        <mxCell id="0S2fVbFoJRxDx6hrV0r0-24" value="- pin: byte" style="text;align=left;verticalAlign=top;spacingLeft=4;spacingRight=4;overflow=hidden;rotatable=0;points=[[0,0.5],[1,0.5]];portConstraint=eastwest;" parent="0S2fVbFoJRxDx6hrV0r0-23" vertex="1">
          <mxGeometry y="26" width="220" height="26" as="geometry" />
        </mxCell>
        <mxCell id="0S2fVbFoJRxDx6hrV0r0-26" value="- id: int" style="text;align=left;verticalAlign=top;spacingLeft=4;spacingRight=4;overflow=hidden;rotatable=0;points=[[0,0.5],[1,0.5]];portConstraint=eastwest;fontStyle=0" parent="0S2fVbFoJRxDx6hrV0r0-23" vertex="1">
          <mxGeometry y="52" width="220" height="26" as="geometry" />
        </mxCell>
        <mxCell id="0S2fVbFoJRxDx6hrV0r0-27" value="- type: String" style="text;align=left;verticalAlign=top;spacingLeft=4;spacingRight=4;overflow=hidden;rotatable=0;points=[[0,0.5],[1,0.5]];portConstraint=eastwest;" parent="0S2fVbFoJRxDx6hrV0r0-23" vertex="1">
          <mxGeometry y="78" width="220" height="26" as="geometry" />
        </mxCell>
        <mxCell id="0S2fVbFoJRxDx6hrV0r0-25" value="" style="line;html=1;strokeWidth=1;align=left;verticalAlign=middle;spacingTop=-1;spacingLeft=3;spacingRight=3;rotatable=0;labelPosition=right;points=[];portConstraint=eastwest;" parent="0S2fVbFoJRxDx6hrV0r0-23" vertex="1">
          <mxGeometry y="104" width="220" height="8" as="geometry" />
        </mxCell>
        <mxCell id="0S2fVbFoJRxDx6hrV0r0-28" value="+ Capteur(id: int, type: String, pin: byte)" style="text;align=left;verticalAlign=top;spacingLeft=4;spacingRight=4;overflow=hidden;rotatable=0;points=[[0,0.5],[1,0.5]];portConstraint=eastwest;" parent="0S2fVbFoJRxDx6hrV0r0-23" vertex="1">
          <mxGeometry y="112" width="220" height="26" as="geometry" />
        </mxCell>
        <mxCell id="0S2fVbFoJRxDx6hrV0r0-29" value="+ init(): virtual void" style="text;align=left;verticalAlign=top;spacingLeft=4;spacingRight=4;overflow=hidden;rotatable=0;points=[[0,0.5],[1,0.5]];portConstraint=eastwest;" parent="0S2fVbFoJRxDx6hrV0r0-23" vertex="1">
          <mxGeometry y="138" width="220" height="26" as="geometry" />
        </mxCell>
        <mxCell id="0S2fVbFoJRxDx6hrV0r0-30" value="+ mesurer(): virtual float" style="text;align=left;verticalAlign=top;spacingLeft=4;spacingRight=4;overflow=hidden;rotatable=0;points=[[0,0.5],[1,0.5]];portConstraint=eastwest;" parent="0S2fVbFoJRxDx6hrV0r0-23" vertex="1">
          <mxGeometry y="164" width="220" height="26" as="geometry" />
        </mxCell>
        <mxCell id="0S2fVbFoJRxDx6hrV0r0-31" value="+ afficherValeur(): virtial void" style="text;align=left;verticalAlign=top;spacingLeft=4;spacingRight=4;overflow=hidden;rotatable=0;points=[[0,0.5],[1,0.5]];portConstraint=eastwest;" parent="0S2fVbFoJRxDx6hrV0r0-23" vertex="1">
          <mxGeometry y="190" width="220" height="26" as="geometry" />
        </mxCell>
        <mxCell id="0S2fVbFoJRxDx6hrV0r0-32" value="CapteurLuminosite" style="swimlane;fontStyle=0;align=center;verticalAlign=top;childLayout=stackLayout;horizontal=1;startSize=26;horizontalStack=0;resizeParent=1;resizeLast=0;collapsible=1;marginBottom=0;rounded=0;shadow=0;strokeWidth=1;" parent="WIyWlLk6GJQsqaUBKTNV-1" vertex="1">
          <mxGeometry x="847" y="600" width="286" height="164" as="geometry">
            <mxRectangle x="340" y="380" width="170" height="26" as="alternateBounds" />
          </mxGeometry>
        </mxCell>
        <mxCell id="0S2fVbFoJRxDx6hrV0r0-33" value="- valeurLuminosite: int" style="text;align=left;verticalAlign=top;spacingLeft=4;spacingRight=4;overflow=hidden;rotatable=0;points=[[0,0.5],[1,0.5]];portConstraint=eastwest;" parent="0S2fVbFoJRxDx6hrV0r0-32" vertex="1">
          <mxGeometry y="26" width="286" height="26" as="geometry" />
        </mxCell>
        <mxCell id="0S2fVbFoJRxDx6hrV0r0-34" value="(inherits from Capteur)" style="text;align=left;verticalAlign=top;spacingLeft=4;spacingRight=4;overflow=hidden;rotatable=0;points=[[0,0.5],[1,0.5]];portConstraint=eastwest;" parent="0S2fVbFoJRxDx6hrV0r0-32" vertex="1">
          <mxGeometry y="52" width="286" height="26" as="geometry" />
        </mxCell>
        <mxCell id="0S2fVbFoJRxDx6hrV0r0-35" value="" style="line;html=1;strokeWidth=1;align=left;verticalAlign=middle;spacingTop=-1;spacingLeft=3;spacingRight=3;rotatable=0;labelPosition=right;points=[];portConstraint=eastwest;" parent="0S2fVbFoJRxDx6hrV0r0-32" vertex="1">
          <mxGeometry y="78" width="286" height="8" as="geometry" />
        </mxCell>
        <mxCell id="0S2fVbFoJRxDx6hrV0r0-36" value="+ CapteurLuminosite(id: int, type: String, pin: byte)" style="text;align=left;verticalAlign=top;spacingLeft=4;spacingRight=4;overflow=hidden;rotatable=0;points=[[0,0.5],[1,0.5]];portConstraint=eastwest;fontStyle=0" parent="0S2fVbFoJRxDx6hrV0r0-32" vertex="1">
          <mxGeometry y="86" width="286" height="26" as="geometry" />
        </mxCell>
        <mxCell id="0S2fVbFoJRxDx6hrV0r0-37" value="+ mesurer(): float    " style="text;align=left;verticalAlign=top;spacingLeft=4;spacingRight=4;overflow=hidden;rotatable=0;points=[[0,0.5],[1,0.5]];portConstraint=eastwest;fontStyle=0" parent="0S2fVbFoJRxDx6hrV0r0-32" vertex="1">
          <mxGeometry y="112" width="286" height="26" as="geometry" />
        </mxCell>
        <mxCell id="0S2fVbFoJRxDx6hrV0r0-38" value="+ afficherValeur(): void" style="text;align=left;verticalAlign=top;spacingLeft=4;spacingRight=4;overflow=hidden;rotatable=0;points=[[0,0.5],[1,0.5]];portConstraint=eastwest;fontStyle=0" parent="0S2fVbFoJRxDx6hrV0r0-32" vertex="1">
          <mxGeometry y="138" width="286" height="26" as="geometry" />
        </mxCell>
        <mxCell id="0S2fVbFoJRxDx6hrV0r0-40" value="&lt;div&gt;&lt;br&gt;&lt;/div&gt;&lt;div&gt;&lt;br&gt;&lt;/div&gt;" style="endArrow=open;html=1;endSize=12;startArrow=diamondThin;startSize=14;startFill=1;edgeStyle=orthogonalEdgeStyle;align=left;verticalAlign=bottom;rounded=0;" parent="WIyWlLk6GJQsqaUBKTNV-1" source="zkfFHV4jXpPFQw0GAbJ--0" target="0S2fVbFoJRxDx6hrV0r0-23" edge="1">
          <mxGeometry x="-1" y="3" relative="1" as="geometry">
            <mxPoint x="800.3199999999997" y="268" as="sourcePoint" />
            <mxPoint x="710" y="360" as="targetPoint" />
            <Array as="points">
              <mxPoint x="800" y="418" />
            </Array>
          </mxGeometry>
        </mxCell>
        <mxCell id="0S2fVbFoJRxDx6hrV0r0-41" value="" style="endArrow=none;html=1;edgeStyle=orthogonalEdgeStyle;rounded=0;startArrow=open;startFill=0;" parent="WIyWlLk6GJQsqaUBKTNV-1" source="0S2fVbFoJRxDx6hrV0r0-23" target="0S2fVbFoJRxDx6hrV0r0-32" edge="1">
          <mxGeometry relative="1" as="geometry">
            <mxPoint x="997" y="320" as="sourcePoint" />
            <mxPoint x="1020" y="530" as="targetPoint" />
          </mxGeometry>
        </mxCell>
        <mxCell id="0S2fVbFoJRxDx6hrV0r0-42" value="parent" style="edgeLabel;resizable=0;html=1;align=left;verticalAlign=bottom;" parent="0S2fVbFoJRxDx6hrV0r0-41" connectable="0" vertex="1">
          <mxGeometry x="-1" relative="1" as="geometry">
            <mxPoint y="24" as="offset" />
          </mxGeometry>
        </mxCell>
        <mxCell id="0S2fVbFoJRxDx6hrV0r0-43" value="child" style="edgeLabel;resizable=0;html=1;align=right;verticalAlign=bottom;" parent="0S2fVbFoJRxDx6hrV0r0-41" connectable="0" vertex="1">
          <mxGeometry x="1" relative="1" as="geometry" />
        </mxCell>
        <mxCell id="0S2fVbFoJRxDx6hrV0r0-44" value="WifiManager" style="swimlane;fontStyle=0;align=center;verticalAlign=top;childLayout=stackLayout;horizontal=1;startSize=26;horizontalStack=0;resizeParent=1;resizeLast=0;collapsible=1;marginBottom=0;rounded=0;shadow=0;strokeWidth=1;" parent="WIyWlLk6GJQsqaUBKTNV-1" vertex="1">
          <mxGeometry x="-240" y="-150" width="320" height="216" as="geometry">
            <mxRectangle x="130" y="380" width="160" height="26" as="alternateBounds" />
          </mxGeometry>
        </mxCell>
        <mxCell id="0S2fVbFoJRxDx6hrV0r0-45" value="- ssid: const char*" style="text;align=left;verticalAlign=top;spacingLeft=4;spacingRight=4;overflow=hidden;rotatable=0;points=[[0,0.5],[1,0.5]];portConstraint=eastwest;" parent="0S2fVbFoJRxDx6hrV0r0-44" vertex="1">
          <mxGeometry y="26" width="320" height="26" as="geometry" />
        </mxCell>
        <mxCell id="0S2fVbFoJRxDx6hrV0r0-46" value="- password: const char*" style="text;align=left;verticalAlign=top;spacingLeft=4;spacingRight=4;overflow=hidden;rotatable=0;points=[[0,0.5],[1,0.5]];portConstraint=eastwest;fontStyle=0" parent="0S2fVbFoJRxDx6hrV0r0-44" vertex="1">
          <mxGeometry y="52" width="320" height="26" as="geometry" />
        </mxCell>
        <mxCell id="0S2fVbFoJRxDx6hrV0r0-48" value="" style="line;html=1;strokeWidth=1;align=left;verticalAlign=middle;spacingTop=-1;spacingLeft=3;spacingRight=3;rotatable=0;labelPosition=right;points=[];portConstraint=eastwest;" parent="0S2fVbFoJRxDx6hrV0r0-44" vertex="1">
          <mxGeometry y="78" width="320" height="8" as="geometry" />
        </mxCell>
        <mxCell id="0S2fVbFoJRxDx6hrV0r0-49" value=" + WifiManager(ssid: const char*, password: const char*)" style="text;align=left;verticalAlign=top;spacingLeft=4;spacingRight=4;overflow=hidden;rotatable=0;points=[[0,0.5],[1,0.5]];portConstraint=eastwest;" parent="0S2fVbFoJRxDx6hrV0r0-44" vertex="1">
          <mxGeometry y="86" width="320" height="26" as="geometry" />
        </mxCell>
        <mxCell id="0S2fVbFoJRxDx6hrV0r0-50" value="+ init(): void" style="text;align=left;verticalAlign=top;spacingLeft=4;spacingRight=4;overflow=hidden;rotatable=0;points=[[0,0.5],[1,0.5]];portConstraint=eastwest;" parent="0S2fVbFoJRxDx6hrV0r0-44" vertex="1">
          <mxGeometry y="112" width="320" height="26" as="geometry" />
        </mxCell>
        <mxCell id="0S2fVbFoJRxDx6hrV0r0-51" value="+ isConnected: bool" style="text;align=left;verticalAlign=top;spacingLeft=4;spacingRight=4;overflow=hidden;rotatable=0;points=[[0,0.5],[1,0.5]];portConstraint=eastwest;" parent="0S2fVbFoJRxDx6hrV0r0-44" vertex="1">
          <mxGeometry y="138" width="320" height="26" as="geometry" />
        </mxCell>
        <mxCell id="0S2fVbFoJRxDx6hrV0r0-52" value="+ getIP(): String" style="text;align=left;verticalAlign=top;spacingLeft=4;spacingRight=4;overflow=hidden;rotatable=0;points=[[0,0.5],[1,0.5]];portConstraint=eastwest;" parent="0S2fVbFoJRxDx6hrV0r0-44" vertex="1">
          <mxGeometry y="164" width="320" height="26" as="geometry" />
        </mxCell>
        <mxCell id="0S2fVbFoJRxDx6hrV0r0-53" value="+ reconnect(): void" style="text;align=left;verticalAlign=top;spacingLeft=4;spacingRight=4;overflow=hidden;rotatable=0;points=[[0,0.5],[1,0.5]];portConstraint=eastwest;" parent="0S2fVbFoJRxDx6hrV0r0-44" vertex="1">
          <mxGeometry y="190" width="320" height="26" as="geometry" />
        </mxCell>
        <mxCell id="0S2fVbFoJRxDx6hrV0r0-54" value="" style="endArrow=open;html=1;endSize=12;startArrow=diamondThin;startSize=14;startFill=1;edgeStyle=orthogonalEdgeStyle;align=left;verticalAlign=bottom;rounded=0;" parent="WIyWlLk6GJQsqaUBKTNV-1" edge="1" target="d4xonkIrinztynes1HLD-17" source="zkfFHV4jXpPFQw0GAbJ--0">
          <mxGeometry x="-1" y="3" relative="1" as="geometry">
            <mxPoint x="880" y="255" as="sourcePoint" />
            <mxPoint x="980.9999999999995" y="470.0000000000001" as="targetPoint" />
            <Array as="points">
              <mxPoint x="340" y="165" />
              <mxPoint x="340" y="290" />
            </Array>
          </mxGeometry>
        </mxCell>
        <mxCell id="d4xonkIrinztynes1HLD-16" value="&lt;div&gt;&lt;br&gt;&lt;/div&gt;&lt;div&gt;&lt;br&gt;&lt;/div&gt;" style="endArrow=open;html=1;endSize=12;startArrow=diamondThin;startSize=14;startFill=1;edgeStyle=orthogonalEdgeStyle;align=left;verticalAlign=bottom;rounded=0;entryX=0.5;entryY=0;entryDx=0;entryDy=0;" parent="WIyWlLk6GJQsqaUBKTNV-1" source="zkfFHV4jXpPFQw0GAbJ--0" edge="1" target="0S2fVbFoJRxDx6hrV0r0-44">
          <mxGeometry x="-1" y="3" relative="1" as="geometry">
            <mxPoint x="970" y="250" as="sourcePoint" />
            <mxPoint x="1411" y="530" as="targetPoint" />
            <Array as="points">
              <mxPoint x="340" y="165" />
              <mxPoint x="340" y="-160" />
              <mxPoint x="-80" y="-160" />
            </Array>
          </mxGeometry>
        </mxCell>
        <mxCell id="d4xonkIrinztynes1HLD-17" value="MqttClient" style="swimlane;fontStyle=0;align=center;verticalAlign=top;childLayout=stackLayout;horizontal=1;startSize=26;horizontalStack=0;resizeParent=1;resizeLast=0;collapsible=1;marginBottom=0;rounded=0;shadow=0;strokeWidth=1;" parent="WIyWlLk6GJQsqaUBKTNV-1" vertex="1">
          <mxGeometry x="-290" y="130" width="460" height="320" as="geometry">
            <mxRectangle x="130" y="380" width="160" height="26" as="alternateBounds" />
          </mxGeometry>
        </mxCell>
        <mxCell id="d4xonkIrinztynes1HLD-18" value="- server: const char*" style="text;align=left;verticalAlign=top;spacingLeft=4;spacingRight=4;overflow=hidden;rotatable=0;points=[[0,0.5],[1,0.5]];portConstraint=eastwest;" parent="d4xonkIrinztynes1HLD-17" vertex="1">
          <mxGeometry y="26" width="460" height="26" as="geometry" />
        </mxCell>
        <mxCell id="d4xonkIrinztynes1HLD-19" value="- port: const int" style="text;align=left;verticalAlign=top;spacingLeft=4;spacingRight=4;overflow=hidden;rotatable=0;points=[[0,0.5],[1,0.5]];portConstraint=eastwest;fontStyle=0" parent="d4xonkIrinztynes1HLD-17" vertex="1">
          <mxGeometry y="52" width="460" height="26" as="geometry" />
        </mxCell>
        <mxCell id="d4xonkIrinztynes1HLD-20" value="- user: const char*" style="text;align=left;verticalAlign=top;spacingLeft=4;spacingRight=4;overflow=hidden;rotatable=0;points=[[0,0.5],[1,0.5]];portConstraint=eastwest;fontStyle=0" parent="d4xonkIrinztynes1HLD-17" vertex="1">
          <mxGeometry y="78" width="460" height="26" as="geometry" />
        </mxCell>
        <mxCell id="d4xonkIrinztynes1HLD-21" value="- password: const char*" style="text;align=left;verticalAlign=top;spacingLeft=4;spacingRight=4;overflow=hidden;rotatable=0;points=[[0,0.5],[1,0.5]];portConstraint=eastwest;fontStyle=0" parent="d4xonkIrinztynes1HLD-17" vertex="1">
          <mxGeometry y="104" width="460" height="26" as="geometry" />
        </mxCell>
        <mxCell id="d4xonkIrinztynes1HLD-22" value="" style="line;html=1;strokeWidth=1;align=left;verticalAlign=middle;spacingTop=-1;spacingLeft=3;spacingRight=3;rotatable=0;labelPosition=right;points=[];portConstraint=eastwest;" parent="d4xonkIrinztynes1HLD-17" vertex="1">
          <mxGeometry y="130" width="460" height="60" as="geometry" />
        </mxCell>
        <mxCell id="d4xonkIrinztynes1HLD-23" value=" + MqttClient(const char* server, int port, const char* user, const char* password);" style="text;align=left;verticalAlign=top;spacingLeft=4;spacingRight=4;overflow=hidden;rotatable=0;points=[[0,0.5],[1,0.5]];portConstraint=eastwest;" parent="d4xonkIrinztynes1HLD-17" vertex="1">
          <mxGeometry y="190" width="460" height="26" as="geometry" />
        </mxCell>
        <mxCell id="d4xonkIrinztynes1HLD-24" value="+ connectMQTT(): void" style="text;align=left;verticalAlign=top;spacingLeft=4;spacingRight=4;overflow=hidden;rotatable=0;points=[[0,0.5],[1,0.5]];portConstraint=eastwest;" parent="d4xonkIrinztynes1HLD-17" vertex="1">
          <mxGeometry y="216" width="460" height="26" as="geometry" />
        </mxCell>
        <mxCell id="d4xonkIrinztynes1HLD-25" value="+ publishData(const char* topic, float data1,float data2,bool data3): void" style="text;align=left;verticalAlign=top;spacingLeft=4;spacingRight=4;overflow=hidden;rotatable=0;points=[[0,0.5],[1,0.5]];portConstraint=eastwest;" parent="d4xonkIrinztynes1HLD-17" vertex="1">
          <mxGeometry y="242" width="460" height="26" as="geometry" />
        </mxCell>
        <mxCell id="d4xonkIrinztynes1HLD-26" value="+ subscribeData(const char* topic, void (*callback)(char*, uint8_t*, unsigned int)): void" style="text;align=left;verticalAlign=top;spacingLeft=4;spacingRight=4;overflow=hidden;rotatable=0;points=[[0,0.5],[1,0.5]];portConstraint=eastwest;" parent="d4xonkIrinztynes1HLD-17" vertex="1">
          <mxGeometry y="268" width="460" height="26" as="geometry" />
        </mxCell>
        <mxCell id="d4xonkIrinztynes1HLD-27" value="+ loop(): void" style="text;align=left;verticalAlign=top;spacingLeft=4;spacingRight=4;overflow=hidden;rotatable=0;points=[[0,0.5],[1,0.5]];portConstraint=eastwest;" parent="d4xonkIrinztynes1HLD-17" vertex="1">
          <mxGeometry y="294" width="460" height="26" as="geometry" />
        </mxCell>
        <mxCell id="1HjAKpum90PbzP_rUXJG-0" value="TemperatureHumiditySensor" style="swimlane;fontStyle=0;align=center;verticalAlign=top;childLayout=stackLayout;horizontal=1;startSize=26;horizontalStack=0;resizeParent=1;resizeLast=0;collapsible=1;marginBottom=0;rounded=0;shadow=0;strokeWidth=1;" vertex="1" parent="WIyWlLk6GJQsqaUBKTNV-1">
          <mxGeometry x="1770" y="180" width="320" height="242" as="geometry">
            <mxRectangle x="130" y="380" width="160" height="26" as="alternateBounds" />
          </mxGeometry>
        </mxCell>
        <mxCell id="1HjAKpum90PbzP_rUXJG-1" value="- sht31 : Adafruit_SHT31 " style="text;align=left;verticalAlign=top;spacingLeft=4;spacingRight=4;overflow=hidden;rotatable=0;points=[[0,0.5],[1,0.5]];portConstraint=eastwest;" vertex="1" parent="1HjAKpum90PbzP_rUXJG-0">
          <mxGeometry y="26" width="320" height="26" as="geometry" />
        </mxCell>
        <mxCell id="1HjAKpum90PbzP_rUXJG-2" value="- i2cAddress : byte" style="text;align=left;verticalAlign=top;spacingLeft=4;spacingRight=4;overflow=hidden;rotatable=0;points=[[0,0.5],[1,0.5]];portConstraint=eastwest;fontStyle=0" vertex="1" parent="1HjAKpum90PbzP_rUXJG-0">
          <mxGeometry y="52" width="320" height="26" as="geometry" />
        </mxCell>
        <mxCell id="1HjAKpum90PbzP_rUXJG-3" value="" style="line;html=1;strokeWidth=1;align=left;verticalAlign=middle;spacingTop=-1;spacingLeft=3;spacingRight=3;rotatable=0;labelPosition=right;points=[];portConstraint=eastwest;" vertex="1" parent="1HjAKpum90PbzP_rUXJG-0">
          <mxGeometry y="78" width="320" height="8" as="geometry" />
        </mxCell>
        <mxCell id="1HjAKpum90PbzP_rUXJG-4" value="+ TemperatureHumiditySensor(byte address)" style="text;align=left;verticalAlign=top;spacingLeft=4;spacingRight=4;overflow=hidden;rotatable=0;points=[[0,0.5],[1,0.5]];portConstraint=eastwest;" vertex="1" parent="1HjAKpum90PbzP_rUXJG-0">
          <mxGeometry y="86" width="320" height="26" as="geometry" />
        </mxCell>
        <mxCell id="1HjAKpum90PbzP_rUXJG-5" value="+ begin() : bool " style="text;align=left;verticalAlign=top;spacingLeft=4;spacingRight=4;overflow=hidden;rotatable=0;points=[[0,0.5],[1,0.5]];portConstraint=eastwest;" vertex="1" parent="1HjAKpum90PbzP_rUXJG-0">
          <mxGeometry y="112" width="320" height="26" as="geometry" />
        </mxCell>
        <mxCell id="1HjAKpum90PbzP_rUXJG-6" value="+ getTemperature() : float " style="text;align=left;verticalAlign=top;spacingLeft=4;spacingRight=4;overflow=hidden;rotatable=0;points=[[0,0.5],[1,0.5]];portConstraint=eastwest;" vertex="1" parent="1HjAKpum90PbzP_rUXJG-0">
          <mxGeometry y="138" width="320" height="26" as="geometry" />
        </mxCell>
        <mxCell id="1HjAKpum90PbzP_rUXJG-7" value="+ getHumidity() : float " style="text;align=left;verticalAlign=top;spacingLeft=4;spacingRight=4;overflow=hidden;rotatable=0;points=[[0,0.5],[1,0.5]];portConstraint=eastwest;" vertex="1" parent="1HjAKpum90PbzP_rUXJG-0">
          <mxGeometry y="164" width="320" height="26" as="geometry" />
        </mxCell>
        <mxCell id="1HjAKpum90PbzP_rUXJG-8" value="+ show() : void " style="text;align=left;verticalAlign=top;spacingLeft=4;spacingRight=4;overflow=hidden;rotatable=0;points=[[0,0.5],[1,0.5]];portConstraint=eastwest;" vertex="1" parent="1HjAKpum90PbzP_rUXJG-0">
          <mxGeometry y="190" width="320" height="26" as="geometry" />
        </mxCell>
        <mxCell id="1HjAKpum90PbzP_rUXJG-9" value="+ isValidReading() : bool " style="text;align=left;verticalAlign=top;spacingLeft=4;spacingRight=4;overflow=hidden;rotatable=0;points=[[0,0.5],[1,0.5]];portConstraint=eastwest;" vertex="1" parent="1HjAKpum90PbzP_rUXJG-0">
          <mxGeometry y="216" width="320" height="26" as="geometry" />
        </mxCell>
        <mxCell id="1HjAKpum90PbzP_rUXJG-10" value="ScreenManager" style="swimlane;fontStyle=0;align=center;verticalAlign=top;childLayout=stackLayout;horizontal=1;startSize=26;horizontalStack=0;resizeParent=1;resizeLast=0;collapsible=1;marginBottom=0;rounded=0;shadow=0;strokeWidth=1;" vertex="1" parent="WIyWlLk6GJQsqaUBKTNV-1">
          <mxGeometry x="1690" y="-140" width="440" height="242" as="geometry">
            <mxRectangle x="130" y="380" width="160" height="26" as="alternateBounds" />
          </mxGeometry>
        </mxCell>
        <mxCell id="1HjAKpum90PbzP_rUXJG-11" value="- SDA, SCL : byte " style="text;align=left;verticalAlign=top;spacingLeft=4;spacingRight=4;overflow=hidden;rotatable=0;points=[[0,0.5],[1,0.5]];portConstraint=eastwest;" vertex="1" parent="1HjAKpum90PbzP_rUXJG-10">
          <mxGeometry y="26" width="440" height="26" as="geometry" />
        </mxCell>
        <mxCell id="1HjAKpum90PbzP_rUXJG-12" value="- r, g, b : int " style="text;align=left;verticalAlign=top;spacingLeft=4;spacingRight=4;overflow=hidden;rotatable=0;points=[[0,0.5],[1,0.5]];portConstraint=eastwest;fontStyle=0" vertex="1" parent="1HjAKpum90PbzP_rUXJG-10">
          <mxGeometry y="52" width="440" height="26" as="geometry" />
        </mxCell>
        <mxCell id="1HjAKpum90PbzP_rUXJG-20" value="- Message1, Message2 : String " style="text;align=left;verticalAlign=top;spacingLeft=4;spacingRight=4;overflow=hidden;rotatable=0;points=[[0,0.5],[1,0.5]];portConstraint=eastwest;fontStyle=0" vertex="1" parent="1HjAKpum90PbzP_rUXJG-10">
          <mxGeometry y="78" width="440" height="26" as="geometry" />
        </mxCell>
        <mxCell id="1HjAKpum90PbzP_rUXJG-13" value="" style="line;html=1;strokeWidth=1;align=left;verticalAlign=middle;spacingTop=-1;spacingLeft=3;spacingRight=3;rotatable=0;labelPosition=right;points=[];portConstraint=eastwest;" vertex="1" parent="1HjAKpum90PbzP_rUXJG-10">
          <mxGeometry y="104" width="440" height="8" as="geometry" />
        </mxCell>
        <mxCell id="1HjAKpum90PbzP_rUXJG-14" value="+ ScreenManager(byte SDA, byte SCL)" style="text;align=left;verticalAlign=top;spacingLeft=4;spacingRight=4;overflow=hidden;rotatable=0;points=[[0,0.5],[1,0.5]];portConstraint=eastwest;" vertex="1" parent="1HjAKpum90PbzP_rUXJG-10">
          <mxGeometry y="112" width="440" height="26" as="geometry" />
        </mxCell>
        <mxCell id="1HjAKpum90PbzP_rUXJG-18" value="+ ScreenManager&amp; operator&lt;&lt;(const String&amp; message)" style="text;align=left;verticalAlign=top;spacingLeft=4;spacingRight=4;overflow=hidden;rotatable=0;points=[[0,0.5],[1,0.5]];portConstraint=eastwest;" vertex="1" parent="1HjAKpum90PbzP_rUXJG-10">
          <mxGeometry y="138" width="440" height="26" as="geometry" />
        </mxCell>
        <mxCell id="1HjAKpum90PbzP_rUXJG-15" value="+ setrgb(uint8_t r, uint8_t g, uint8_t b) : void " style="text;align=left;verticalAlign=top;spacingLeft=4;spacingRight=4;overflow=hidden;rotatable=0;points=[[0,0.5],[1,0.5]];portConstraint=eastwest;" vertex="1" parent="1HjAKpum90PbzP_rUXJG-10">
          <mxGeometry y="164" width="440" height="26" as="geometry" />
        </mxCell>
        <mxCell id="1HjAKpum90PbzP_rUXJG-16" value="+ show(uint8_t r, uint8_t g, uint8_t b, String Message1, String Message2) : void " style="text;align=left;verticalAlign=top;spacingLeft=4;spacingRight=4;overflow=hidden;rotatable=0;points=[[0,0.5],[1,0.5]];portConstraint=eastwest;" vertex="1" parent="1HjAKpum90PbzP_rUXJG-10">
          <mxGeometry y="190" width="440" height="26" as="geometry" />
        </mxCell>
        <mxCell id="1HjAKpum90PbzP_rUXJG-17" value="+ init() : void " style="text;align=left;verticalAlign=top;spacingLeft=4;spacingRight=4;overflow=hidden;rotatable=0;points=[[0,0.5],[1,0.5]];portConstraint=eastwest;" vertex="1" parent="1HjAKpum90PbzP_rUXJG-10">
          <mxGeometry y="216" width="440" height="26" as="geometry" />
        </mxCell>
        <mxCell id="1HjAKpum90PbzP_rUXJG-21" value="Buzzer" style="swimlane;fontStyle=0;align=center;verticalAlign=top;childLayout=stackLayout;horizontal=1;startSize=26;horizontalStack=0;resizeParent=1;resizeLast=0;collapsible=1;marginBottom=0;rounded=0;shadow=0;strokeWidth=1;" vertex="1" parent="WIyWlLk6GJQsqaUBKTNV-1">
          <mxGeometry x="-100" y="600" width="560" height="164" as="geometry">
            <mxRectangle x="340" y="380" width="170" height="26" as="alternateBounds" />
          </mxGeometry>
        </mxCell>
        <mxCell id="1HjAKpum90PbzP_rUXJG-22" value="(inherits from Actuator)" style="text;align=left;verticalAlign=top;spacingLeft=4;spacingRight=4;overflow=hidden;rotatable=0;points=[[0,0.5],[1,0.5]];portConstraint=eastwest;" vertex="1" parent="1HjAKpum90PbzP_rUXJG-21">
          <mxGeometry y="26" width="560" height="26" as="geometry" />
        </mxCell>
        <mxCell id="1HjAKpum90PbzP_rUXJG-23" value="" style="line;html=1;strokeWidth=1;align=left;verticalAlign=middle;spacingTop=-1;spacingLeft=3;spacingRight=3;rotatable=0;labelPosition=right;points=[];portConstraint=eastwest;" vertex="1" parent="1HjAKpum90PbzP_rUXJG-21">
          <mxGeometry y="52" width="560" height="8" as="geometry" />
        </mxCell>
        <mxCell id="1HjAKpum90PbzP_rUXJG-24" value="+ Buzzer(byte pin)" style="text;align=left;verticalAlign=top;spacingLeft=4;spacingRight=4;overflow=hidden;rotatable=0;points=[[0,0.5],[1,0.5]];portConstraint=eastwest;fontStyle=0" vertex="1" parent="1HjAKpum90PbzP_rUXJG-21">
          <mxGeometry y="60" width="560" height="26" as="geometry" />
        </mxCell>
        <mxCell id="1HjAKpum90PbzP_rUXJG-25" value="+ playFireAlarmPattern(int shortBeepDuration, int shortBeepInterval, int pauseBetweenPatterns) : void " style="text;align=left;verticalAlign=top;spacingLeft=4;spacingRight=4;overflow=hidden;rotatable=0;points=[[0,0.5],[1,0.5]];portConstraint=eastwest;fontStyle=0" vertex="1" parent="1HjAKpum90PbzP_rUXJG-21">
          <mxGeometry y="86" width="560" height="26" as="geometry" />
        </mxCell>
        <mxCell id="1HjAKpum90PbzP_rUXJG-26" value="+ SetTone() : void " style="text;align=left;verticalAlign=top;spacingLeft=4;spacingRight=4;overflow=hidden;rotatable=0;points=[[0,0.5],[1,0.5]];portConstraint=eastwest;fontStyle=0" vertex="1" parent="1HjAKpum90PbzP_rUXJG-21">
          <mxGeometry y="112" width="560" height="26" as="geometry" />
        </mxCell>
        <mxCell id="1HjAKpum90PbzP_rUXJG-27" value="+ SetnoTone() : void " style="text;align=left;verticalAlign=top;spacingLeft=4;spacingRight=4;overflow=hidden;rotatable=0;points=[[0,0.5],[1,0.5]];portConstraint=eastwest;fontStyle=0" vertex="1" parent="1HjAKpum90PbzP_rUXJG-21">
          <mxGeometry y="138" width="560" height="26" as="geometry" />
        </mxCell>
        <mxCell id="1HjAKpum90PbzP_rUXJG-28" value="" style="endArrow=none;html=1;edgeStyle=orthogonalEdgeStyle;rounded=0;" edge="1" parent="WIyWlLk6GJQsqaUBKTNV-1" target="1HjAKpum90PbzP_rUXJG-21" source="zkfFHV4jXpPFQw0GAbJ--6">
          <mxGeometry relative="1" as="geometry">
            <mxPoint x="620" y="470" as="sourcePoint" />
            <mxPoint x="690" y="542" as="targetPoint" />
            <Array as="points">
              <mxPoint x="400" y="520" />
              <mxPoint x="180" y="520" />
            </Array>
          </mxGeometry>
        </mxCell>
        <mxCell id="1HjAKpum90PbzP_rUXJG-29" value="parent" style="edgeLabel;resizable=0;html=1;align=left;verticalAlign=bottom;" connectable="0" vertex="1" parent="1HjAKpum90PbzP_rUXJG-28">
          <mxGeometry x="-1" relative="1" as="geometry">
            <mxPoint y="22" as="offset" />
          </mxGeometry>
        </mxCell>
        <mxCell id="1HjAKpum90PbzP_rUXJG-30" value="child" style="edgeLabel;resizable=0;html=1;align=right;verticalAlign=bottom;" connectable="0" vertex="1" parent="1HjAKpum90PbzP_rUXJG-28">
          <mxGeometry x="1" relative="1" as="geometry" />
        </mxCell>
        <mxCell id="1HjAKpum90PbzP_rUXJG-31" value="parent" style="edgeLabel;resizable=0;html=1;align=left;verticalAlign=bottom;" connectable="0" vertex="1" parent="WIyWlLk6GJQsqaUBKTNV-1">
          <mxGeometry x="520" y="379" as="geometry" />
        </mxCell>
        <mxCell id="1HjAKpum90PbzP_rUXJG-32" value="&lt;div&gt;&lt;br&gt;&lt;/div&gt;&lt;div&gt;&lt;br&gt;&lt;/div&gt;" style="endArrow=open;html=1;endSize=12;startArrow=diamondThin;startSize=14;startFill=1;edgeStyle=orthogonalEdgeStyle;align=left;verticalAlign=bottom;rounded=0;entryX=0.5;entryY=0;entryDx=0;entryDy=0;" edge="1" parent="WIyWlLk6GJQsqaUBKTNV-1" source="zkfFHV4jXpPFQw0GAbJ--0" target="1HjAKpum90PbzP_rUXJG-0">
          <mxGeometry x="-1" y="3" relative="1" as="geometry">
            <mxPoint x="890" y="220" as="sourcePoint" />
            <mxPoint x="1421" y="540" as="targetPoint" />
          </mxGeometry>
        </mxCell>
        <mxCell id="1HjAKpum90PbzP_rUXJG-33" value="&lt;div&gt;&lt;br&gt;&lt;/div&gt;&lt;div&gt;&lt;br&gt;&lt;/div&gt;" style="endArrow=open;html=1;endSize=12;startArrow=diamondThin;startSize=14;startFill=1;edgeStyle=orthogonalEdgeStyle;align=left;verticalAlign=bottom;rounded=0;entryX=0.5;entryY=0;entryDx=0;entryDy=0;" edge="1" parent="WIyWlLk6GJQsqaUBKTNV-1" source="zkfFHV4jXpPFQw0GAbJ--0" target="1HjAKpum90PbzP_rUXJG-10">
          <mxGeometry x="-1" y="3" relative="1" as="geometry">
            <mxPoint x="900" y="230" as="sourcePoint" />
            <mxPoint x="1431" y="550" as="targetPoint" />
          </mxGeometry>
        </mxCell>
        <mxCell id="1HjAKpum90PbzP_rUXJG-35" value="Button" style="swimlane;fontStyle=0;align=center;verticalAlign=top;childLayout=stackLayout;horizontal=1;startSize=26;horizontalStack=0;resizeParent=1;resizeLast=0;collapsible=1;marginBottom=0;rounded=0;shadow=0;strokeWidth=1;" vertex="1" parent="WIyWlLk6GJQsqaUBKTNV-1">
          <mxGeometry x="1160" y="600" width="286" height="140" as="geometry">
            <mxRectangle x="340" y="380" width="170" height="26" as="alternateBounds" />
          </mxGeometry>
        </mxCell>
        <mxCell id="1HjAKpum90PbzP_rUXJG-36" value="- Activated : bool " style="text;align=left;verticalAlign=top;spacingLeft=4;spacingRight=4;overflow=hidden;rotatable=0;points=[[0,0.5],[1,0.5]];portConstraint=eastwest;fontStyle=0" vertex="1" parent="1HjAKpum90PbzP_rUXJG-35">
          <mxGeometry y="26" width="286" height="26" as="geometry" />
        </mxCell>
        <mxCell id="1HjAKpum90PbzP_rUXJG-37" value="(inherits from Capteur)" style="text;align=left;verticalAlign=top;spacingLeft=4;spacingRight=4;overflow=hidden;rotatable=0;points=[[0,0.5],[1,0.5]];portConstraint=eastwest;" vertex="1" parent="1HjAKpum90PbzP_rUXJG-35">
          <mxGeometry y="52" width="286" height="26" as="geometry" />
        </mxCell>
        <mxCell id="1HjAKpum90PbzP_rUXJG-38" value="" style="line;html=1;strokeWidth=1;align=left;verticalAlign=middle;spacingTop=-1;spacingLeft=3;spacingRight=3;rotatable=0;labelPosition=right;points=[];portConstraint=eastwest;" vertex="1" parent="1HjAKpum90PbzP_rUXJG-35">
          <mxGeometry y="78" width="286" height="8" as="geometry" />
        </mxCell>
        <mxCell id="1HjAKpum90PbzP_rUXJG-39" value="+ Button(int id, String type, byte pin)" style="text;align=left;verticalAlign=top;spacingLeft=4;spacingRight=4;overflow=hidden;rotatable=0;points=[[0,0.5],[1,0.5]];portConstraint=eastwest;fontStyle=0" vertex="1" parent="1HjAKpum90PbzP_rUXJG-35">
          <mxGeometry y="86" width="286" height="26" as="geometry" />
        </mxCell>
        <mxCell id="1HjAKpum90PbzP_rUXJG-40" value="+ IsActivated() : bool " style="text;align=left;verticalAlign=top;spacingLeft=4;spacingRight=4;overflow=hidden;rotatable=0;points=[[0,0.5],[1,0.5]];portConstraint=eastwest;fontStyle=0" vertex="1" parent="1HjAKpum90PbzP_rUXJG-35">
          <mxGeometry y="112" width="286" height="26" as="geometry" />
        </mxCell>
        <mxCell id="1HjAKpum90PbzP_rUXJG-43" value="UltrasonicSensor" style="swimlane;fontStyle=0;align=center;verticalAlign=top;childLayout=stackLayout;horizontal=1;startSize=26;horizontalStack=0;resizeParent=1;resizeLast=0;collapsible=1;marginBottom=0;rounded=0;shadow=0;strokeWidth=1;" vertex="1" parent="WIyWlLk6GJQsqaUBKTNV-1">
          <mxGeometry x="1470" y="600" width="286" height="164" as="geometry">
            <mxRectangle x="340" y="380" width="170" height="26" as="alternateBounds" />
          </mxGeometry>
        </mxCell>
        <mxCell id="1HjAKpum90PbzP_rUXJG-44" value="- duration : long " style="text;align=left;verticalAlign=top;spacingLeft=4;spacingRight=4;overflow=hidden;rotatable=0;points=[[0,0.5],[1,0.5]];portConstraint=eastwest;fontStyle=0" vertex="1" parent="1HjAKpum90PbzP_rUXJG-43">
          <mxGeometry y="26" width="286" height="26" as="geometry" />
        </mxCell>
        <mxCell id="1HjAKpum90PbzP_rUXJG-49" value="- distance : int" style="text;align=left;verticalAlign=top;spacingLeft=4;spacingRight=4;overflow=hidden;rotatable=0;points=[[0,0.5],[1,0.5]];portConstraint=eastwest;fontStyle=0" vertex="1" parent="1HjAKpum90PbzP_rUXJG-43">
          <mxGeometry y="52" width="286" height="26" as="geometry" />
        </mxCell>
        <mxCell id="1HjAKpum90PbzP_rUXJG-45" value="(inherits from Capteur)" style="text;align=left;verticalAlign=top;spacingLeft=4;spacingRight=4;overflow=hidden;rotatable=0;points=[[0,0.5],[1,0.5]];portConstraint=eastwest;" vertex="1" parent="1HjAKpum90PbzP_rUXJG-43">
          <mxGeometry y="78" width="286" height="26" as="geometry" />
        </mxCell>
        <mxCell id="1HjAKpum90PbzP_rUXJG-46" value="" style="line;html=1;strokeWidth=1;align=left;verticalAlign=middle;spacingTop=-1;spacingLeft=3;spacingRight=3;rotatable=0;labelPosition=right;points=[];portConstraint=eastwest;" vertex="1" parent="1HjAKpum90PbzP_rUXJG-43">
          <mxGeometry y="104" width="286" height="8" as="geometry" />
        </mxCell>
        <mxCell id="1HjAKpum90PbzP_rUXJG-47" value="+ UltrasonicSensor(int id, String type, byte pin)    " style="text;align=left;verticalAlign=top;spacingLeft=4;spacingRight=4;overflow=hidden;rotatable=0;points=[[0,0.5],[1,0.5]];portConstraint=eastwest;fontStyle=0" vertex="1" parent="1HjAKpum90PbzP_rUXJG-43">
          <mxGeometry y="112" width="286" height="26" as="geometry" />
        </mxCell>
        <mxCell id="1HjAKpum90PbzP_rUXJG-48" value="+ measureDistance() : int " style="text;align=left;verticalAlign=top;spacingLeft=4;spacingRight=4;overflow=hidden;rotatable=0;points=[[0,0.5],[1,0.5]];portConstraint=eastwest;fontStyle=0" vertex="1" parent="1HjAKpum90PbzP_rUXJG-43">
          <mxGeometry y="138" width="286" height="26" as="geometry" />
        </mxCell>
        <mxCell id="1HjAKpum90PbzP_rUXJG-50" value="" style="endArrow=none;html=1;edgeStyle=orthogonalEdgeStyle;rounded=0;startArrow=open;startFill=0;" edge="1" parent="WIyWlLk6GJQsqaUBKTNV-1" source="0S2fVbFoJRxDx6hrV0r0-23" target="1HjAKpum90PbzP_rUXJG-35">
          <mxGeometry relative="1" as="geometry">
            <mxPoint x="1000" y="536" as="sourcePoint" />
            <mxPoint x="1000" y="610" as="targetPoint" />
          </mxGeometry>
        </mxCell>
        <mxCell id="1HjAKpum90PbzP_rUXJG-51" value="parent" style="edgeLabel;resizable=0;html=1;align=left;verticalAlign=bottom;" connectable="0" vertex="1" parent="1HjAKpum90PbzP_rUXJG-50">
          <mxGeometry x="-1" relative="1" as="geometry">
            <mxPoint y="24" as="offset" />
          </mxGeometry>
        </mxCell>
        <mxCell id="1HjAKpum90PbzP_rUXJG-52" value="child" style="edgeLabel;resizable=0;html=1;align=right;verticalAlign=bottom;" connectable="0" vertex="1" parent="1HjAKpum90PbzP_rUXJG-50">
          <mxGeometry x="1" relative="1" as="geometry" />
        </mxCell>
        <mxCell id="1HjAKpum90PbzP_rUXJG-53" value="" style="endArrow=none;html=1;edgeStyle=orthogonalEdgeStyle;rounded=0;startArrow=open;startFill=0;" edge="1" parent="WIyWlLk6GJQsqaUBKTNV-1" source="0S2fVbFoJRxDx6hrV0r0-23" target="1HjAKpum90PbzP_rUXJG-43">
          <mxGeometry relative="1" as="geometry">
            <mxPoint x="1010" y="546" as="sourcePoint" />
            <mxPoint x="1010" y="620" as="targetPoint" />
          </mxGeometry>
        </mxCell>
        <mxCell id="1HjAKpum90PbzP_rUXJG-54" value="parent" style="edgeLabel;resizable=0;html=1;align=left;verticalAlign=bottom;" connectable="0" vertex="1" parent="1HjAKpum90PbzP_rUXJG-53">
          <mxGeometry x="-1" relative="1" as="geometry">
            <mxPoint y="24" as="offset" />
          </mxGeometry>
        </mxCell>
        <mxCell id="1HjAKpum90PbzP_rUXJG-55" value="child" style="edgeLabel;resizable=0;html=1;align=right;verticalAlign=bottom;" connectable="0" vertex="1" parent="1HjAKpum90PbzP_rUXJG-53">
          <mxGeometry x="1" relative="1" as="geometry" />
        </mxCell>
      </root>
    </mxGraphModel>
  </diagram>
</mxfile>
